<svg width="24" height="24" viewBox="0 0 24 24" fill="none" xmlns="http://www.w3.org/2000/svg">
  <rect width="24" height="24" rx="4" fill="#303030"></rect>
  <path d="M18 10.4096V13.602C18 16.4732 15.672 18.8012 12.8008 18.8012H6V15.2992H12.0068C12.3229 15.2993 12.6357 15.2365 12.9277 15.1156C13.2198 14.9947 13.4854 14.8176 13.709 14.5941C13.9326 14.3706 14.1104 14.105 14.2314 13.8129C14.3525 13.5208 14.415 13.2072 14.415 12.891V10.4096H18ZM18 5.10001V8.60196H11.9932C11.6772 8.60189 11.3642 8.66379 11.0723 8.78458C10.7801 8.90551 10.5146 9.08351 10.291 9.30704C10.0674 9.5306 9.88958 9.79616 9.76855 10.0883C9.64764 10.3803 9.58498 10.6932 9.58496 11.0092V13.4916H6V10.2982C6.00021 7.42721 8.32814 5.10001 11.1992 5.10001H18Z" fill="white"></path>
</svg>