<svg preserveAspectRatio="none" width="100%" height="100%" overflow="visible" style="display: block;" viewBox="0 0 24 24" fill="none" xmlns="http://www.w3.org/2000/svg">
<g id="Icon" clip-path="url(#clip0_0_4)">
<path id="Vector" d="M16.6154 0H7.38462C3.3062 0 0 3.3062 0 7.38462V16.6154C0 20.6938 3.3062 24 7.38462 24H16.6154C20.6938 24 24 20.6938 24 16.6154V7.38462C24 3.3062 20.6938 0 16.6154 0Z" fill="var(--fill-0, white)"/>
<path id="Union" d="M17.5388 10.4398V13.3871C17.5385 16.0373 15.3892 18.1849 12.739 18.1849H6.46162V14.9525H12.0056C12.2974 14.9526 12.5865 14.8951 12.8562 14.7836C13.1258 14.6719 13.3714 14.5085 13.5778 14.3021C13.7841 14.0959 13.9476 13.8509 14.0593 13.5814C14.171 13.3118 14.2292 13.0227 14.2292 12.7308V10.4398H17.5388ZM17.5378 5.53846V8.77089H11.9938C11.7021 8.7708 11.4129 8.82828 11.1433 8.93983C10.8736 9.05147 10.628 9.21589 10.4216 9.42225C10.2153 9.62854 10.0518 9.87346 9.94014 10.143C9.82842 10.4126 9.77119 10.7017 9.77119 10.9935V13.2846H6.46162V10.3373C6.46173 7.68704 8.61017 5.53846 11.2604 5.53846H17.5378Z" fill="var(--fill-0, #122666)"/>
</g>
<defs>
<clipPath id="clip0_0_4">
<rect width="24" height="24" fill="white"/>
</clipPath>
</defs>
</svg>
