<svg width="32" height="32" viewBox="0 0 32 32" fill="none" xmlns="http://www.w3.org/2000/svg">
<path d="M30.0007 6.99888V12.9989C30.0007 13.2641 29.8953 13.5184 29.7078 13.706C29.5202 13.8935 29.2659 13.9989 29.0007 13.9989H23.0007C22.7354 13.9989 22.4811 13.8935 22.2936 13.706C22.106 13.5184 22.0007 13.2641 22.0007 12.9989C22.0007 12.7337 22.106 12.4793 22.2936 12.2918C22.4811 12.1042 22.7354 11.9989 23.0007 11.9989H26.4257L23.1019 8.95388L23.0707 8.92388C21.6807 7.53449 19.9123 6.58545 17.9861 6.19531C16.06 5.80517 14.0615 5.99123 12.2405 6.73025C10.4195 7.46927 8.85661 8.72848 7.74708 10.3506C6.63755 11.9727 6.03058 13.8857 6.00199 15.8508C5.9734 17.8159 6.52446 19.7458 7.58633 21.3995C8.64819 23.0532 10.1738 24.3573 11.9725 25.149C13.7713 25.9407 15.7634 26.1848 17.7001 25.8509C19.6368 25.5169 21.4322 24.6197 22.8619 23.2714C23.0547 23.089 23.312 22.9908 23.5773 22.9981C23.8425 23.0055 24.0939 23.118 24.2763 23.3107C24.4586 23.5035 24.5569 23.7608 24.5495 24.0261C24.5421 24.2913 24.4297 24.5428 24.2369 24.7251C22.0138 26.8335 19.0646 28.0058 16.0007 27.9989H15.8357C13.8703 27.972 11.9417 27.4627 10.2193 26.5159C8.49686 25.569 7.03339 24.2136 5.95748 22.5687C4.88158 20.9238 4.22619 19.0398 4.04891 17.0823C3.87164 15.1248 4.1779 13.1537 4.9408 11.3423C5.70369 9.53091 6.89985 7.93461 8.42415 6.69374C9.94844 5.45287 11.7542 4.60542 13.6827 4.22587C15.6112 3.84631 17.6035 3.94628 19.4843 4.51698C21.3651 5.08769 23.077 6.11165 24.4694 7.49888L28.0007 10.7239V6.99888C28.0007 6.73366 28.106 6.47931 28.2936 6.29177C28.4811 6.10423 28.7354 5.99888 29.0007 5.99888C29.2659 5.99888 29.5202 6.10423 29.7078 6.29177C29.8953 6.47931 30.0007 6.73366 30.0007 6.99888Z" fill="#343330"/>
</svg>
