<svg width="32" height="32" viewBox="0 0 32 32" fill="none" xmlns="http://www.w3.org/2000/svg">
<path d="M26.7081 20.7083C26.6152 20.8013 26.5049 20.875 26.3835 20.9253C26.2621 20.9757 26.132 21.0016 26.0006 21.0016C25.8691 21.0016 25.739 20.9757 25.6176 20.9253C25.4962 20.875 25.3859 20.8013 25.2931 20.7083L16.0006 11.4145L6.70806 20.7083C6.52042 20.8959 6.26592 21.0013 6.00056 21.0013C5.73519 21.0013 5.4807 20.8959 5.29306 20.7083C5.10542 20.5206 5 20.2662 5 20.0008C5 19.7354 5.10542 19.4809 5.29306 19.2933L15.2931 9.29329C15.3859 9.20031 15.4962 9.12655 15.6176 9.07623C15.739 9.0259 15.8691 9 16.0006 9C16.132 9 16.2621 9.0259 16.3835 9.07623C16.5049 9.12655 16.6152 9.20031 16.7081 9.29329L26.7081 19.2933C26.801 19.3862 26.8748 19.4964 26.9251 19.6178C26.9754 19.7392 27.0013 19.8694 27.0013 20.0008C27.0013 20.1322 26.9754 20.2623 26.9251 20.3837C26.8748 20.5051 26.801 20.6154 26.7081 20.7083Z" fill="#343330"/>
</svg>
