<svg width="32" height="32" viewBox="0 0 32 32" fill="none" xmlns="http://www.w3.org/2000/svg">
<path d="M26.7083 22.7081L22.7083 26.7081C22.5206 26.8957 22.2661 27.0011 22.0008 27.0011C21.7354 27.0011 21.4809 26.8957 21.2933 26.7081C21.1056 26.5204 21.0002 26.2659 21.0002 26.0006C21.0002 25.7352 21.1056 25.4807 21.2933 25.2931L23.587 23.0006H6.00079C5.73557 23.0006 5.48122 22.8952 5.29368 22.7077C5.10614 22.5201 5.00079 22.2658 5.00079 22.0006C5.00079 21.7353 5.10614 21.481 5.29368 21.2934C5.48122 21.1059 5.73557 21.0006 6.00079 21.0006H23.587L21.2933 18.7081C21.1056 18.5204 21.0002 18.2659 21.0002 18.0006C21.0002 17.7352 21.1056 17.4807 21.2933 17.2931C21.4809 17.1054 21.7354 17 22.0008 17C22.2661 17 22.5206 17.1054 22.7083 17.2931L26.7083 21.2931C26.8013 21.3859 26.875 21.4962 26.9253 21.6176C26.9757 21.739 27.0016 21.8691 27.0016 22.0006C27.0016 22.132 26.9757 22.2621 26.9253 22.3835C26.875 22.5049 26.8013 22.6152 26.7083 22.7081ZM9.29329 14.7081C9.48093 14.8957 9.73542 15.0011 10.0008 15.0011C10.2662 15.0011 10.5206 14.8957 10.7083 14.7081C10.8959 14.5204 11.0013 14.2659 11.0013 14.0006C11.0013 13.7352 10.8959 13.4807 10.7083 13.2931L8.41454 11.0006H26.0008C26.266 11.0006 26.5204 10.8952 26.7079 10.7077C26.8954 10.5201 27.0008 10.2658 27.0008 10.0006C27.0008 9.73534 26.8954 9.48099 26.7079 9.29345C26.5204 9.10591 26.266 9.00056 26.0008 9.00056H8.41454L10.7083 6.70806C10.8959 6.52042 11.0013 6.26592 11.0013 6.00056C11.0013 5.73519 10.8959 5.4807 10.7083 5.29306C10.5206 5.10542 10.2662 5 10.0008 5C9.73542 5 9.48093 5.10542 9.29329 5.29306L5.29329 9.29306C5.20031 9.38593 5.12655 9.49622 5.07623 9.61762C5.0259 9.73901 5 9.86914 5 10.0006C5 10.132 5.0259 10.2621 5.07623 10.3835C5.12655 10.5049 5.20031 10.6152 5.29329 10.7081L9.29329 14.7081Z" fill="#343330"/>
</svg>
