<svg width="32" height="32" viewBox="0 0 32 32" fill="none" xmlns="http://www.w3.org/2000/svg">
<path d="M26.7081 12.7081L16.7081 22.7081C16.6152 22.801 16.5049 22.8748 16.3835 22.9251C16.2621 22.9754 16.132 23.0013 16.0006 23.0013C15.8691 23.0013 15.739 22.9754 15.6176 22.9251C15.4962 22.8748 15.3859 22.801 15.2931 22.7081L5.29306 12.7081C5.10542 12.5204 5 12.2659 5 12.0006C5 11.7352 5.10542 11.4807 5.29306 11.2931C5.4807 11.1054 5.73519 11 6.00056 11C6.26592 11 6.52042 11.1054 6.70806 11.2931L16.0006 20.5868L25.2931 11.2931C25.386 11.2001 25.4963 11.1264 25.6177 11.0762C25.7391 11.0259 25.8692 11 26.0006 11C26.132 11 26.2621 11.0259 26.3835 11.0762C26.5048 11.1264 26.6151 11.2001 26.7081 11.2931C26.801 11.386 26.8747 11.4963 26.9249 11.6177C26.9752 11.7391 27.0011 11.8692 27.0011 12.0006C27.0011 12.132 26.9752 12.2621 26.9249 12.3835C26.8747 12.5048 26.801 12.6151 26.7081 12.7081Z" fill="#343330"/>
</svg>
