<svg width="32" height="32" viewBox="0 0 32 32" fill="none" xmlns="http://www.w3.org/2000/svg">
<path d="M28.7081 9.70806L12.7081 25.7081C12.6152 25.801 12.5049 25.8748 12.3835 25.9251C12.2621 25.9754 12.132 26.0013 12.0006 26.0013C11.8691 26.0013 11.739 25.9754 11.6176 25.9251C11.4962 25.8748 11.3859 25.801 11.2931 25.7081L4.29306 18.7081C4.10542 18.5204 4 18.2659 4 18.0006C4 17.7352 4.10542 17.4807 4.29306 17.2931C4.4807 17.1054 4.73519 17 5.00056 17C5.26592 17 5.52042 17.1054 5.70806 17.2931L12.0006 23.5868L27.2931 8.29306C27.4807 8.10541 27.7352 8 28.0006 8C28.2659 8 28.5204 8.10541 28.7081 8.29306C28.8957 8.4807 29.0011 8.73519 29.0011 9.00056C29.0011 9.26592 28.8957 9.52042 28.7081 9.70806Z" fill="#343330"/>
</svg>
