<svg width="32" height="32" viewBox="0 0 32 32" fill="none" xmlns="http://www.w3.org/2000/svg">
<path d="M28 18.0008V26.0008C28 26.266 27.8946 26.5204 27.7071 26.7079C27.5196 26.8954 27.2652 27.0008 27 27.0008H5C4.73478 27.0008 4.48043 26.8954 4.29289 26.7079C4.10536 26.5204 4 26.266 4 26.0008V18.0008C4 17.7356 4.10536 17.4812 4.29289 17.2937C4.48043 17.1061 4.73478 17.0008 5 17.0008C5.26522 17.0008 5.51957 17.1061 5.70711 17.2937C5.89464 17.4812 6 17.7356 6 18.0008V25.0008H26V18.0008C26 17.7356 26.1054 17.4812 26.2929 17.2937C26.4804 17.1061 26.7348 17.0008 27 17.0008C27.2652 17.0008 27.5196 17.1061 27.7071 17.2937C27.8946 17.4812 28 17.7356 28 18.0008ZM11.7075 9.70829L15 6.41454V18.0008C15 18.266 15.1054 18.5204 15.2929 18.7079C15.4804 18.8954 15.7348 19.0008 16 19.0008C16.2652 19.0008 16.5196 18.8954 16.7071 18.7079C16.8946 18.5204 17 18.266 17 18.0008V6.41454L20.2925 9.70829C20.4801 9.89593 20.7346 10.0013 21 10.0013C21.2654 10.0013 21.5199 9.89593 21.7075 9.70829C21.8951 9.52065 22.0006 9.26615 22.0006 9.00079C22.0006 8.73542 21.8951 8.48093 21.7075 8.29329L16.7075 3.29329C16.6146 3.20031 16.5043 3.12655 16.3829 3.07623C16.2615 3.0259 16.1314 3 16 3C15.8686 3 15.7385 3.0259 15.6171 3.07623C15.4957 3.12655 15.3854 3.20031 15.2925 3.29329L10.2925 8.29329C10.1049 8.48093 9.99944 8.73542 9.99944 9.00079C9.99944 9.26615 10.1049 9.52065 10.2925 9.70829C10.4801 9.89593 10.7346 10.0013 11 10.0013C11.2654 10.0013 11.5199 9.89593 11.7075 9.70829Z" fill="#343330"/>
</svg>
