<svg width="24" height="24" viewBox="0 0 24 24" fill="none" xmlns="http://www.w3.org/2000/svg">
  <rect width="24" height="24" rx="4" fill="white"></rect>
  <path d="M17.5605 10.5198C17.8032 10.5198 17.9998 10.7167 18 10.9593V13.4173C18 16.4653 15.5294 18.9358 12.4814 18.9358H6.43945C6.19674 18.9358 6 18.7391 6 18.4964V15.6585C6 15.4158 6.19674 15.2181 6.43945 15.218H11.6377C11.9734 15.2181 12.3061 15.1521 12.6162 15.0237C12.9263 14.8953 13.208 14.7073 13.4453 14.47C13.6827 14.2327 13.8715 13.951 14 13.6409C14.1284 13.3308 14.1943 12.998 14.1943 12.6624V10.9593C14.1946 10.7167 14.3912 10.5199 14.6338 10.5198H17.5605ZM17.5605 4.66434C17.8032 4.66434 17.9998 4.86121 18 5.10379V7.94266C18 8.18541 17.8033 8.38211 17.5605 8.38211H12.6084C12.2727 8.38205 11.6938 8.4481 11.3838 8.57645C11.0738 8.70482 10.792 8.89296 10.5547 9.13016C10.3174 9.36736 10.1295 9.64933 10.001 9.95926C9.87251 10.2693 9.80568 10.6021 9.80566 10.9378V12.6409C9.80566 12.8837 9.60897 13.0804 9.36621 13.0804H6.43945C6.19674 13.0803 6 12.8836 6 12.6409V10.1839C6 7.13582 8.71758 4.66434 11.7656 4.66434H17.5605Z" fill="#0F172A"></path>
</svg>