<svg preserveAspectRatio="none" width="100%" height="100%" overflow="visible" style="display: block;" viewBox="0 0 24 24" fill="none" xmlns="http://www.w3.org/2000/svg">
<g id="Icon" clip-path="url(#clip0_0_4)">
<path id="Vector" d="M16.6154 0H7.38462C3.3062 0 0 3.3062 0 7.38462V16.6154C0 20.6938 3.3062 24 7.38462 24H16.6154C20.6938 24 24 20.6938 24 16.6154V7.38462C24 3.3062 20.6938 0 16.6154 0Z" fill="var(--fill-0, #122666)"/>
<path id="Union" d="M17.5387 10.4398V13.3871C17.5384 16.0371 15.3899 18.1847 12.7398 18.1849H6.46152V14.9525H12.0064C12.2982 14.9526 12.5875 14.8952 12.857 14.7836C13.1266 14.6719 13.3714 14.5084 13.5777 14.3021C13.7841 14.0958 13.9484 13.8511 14.0602 13.5814C14.1719 13.3118 14.2291 13.0227 14.2291 12.7308V10.4398H17.5387ZM17.5387 5.53846V8.77089H11.9938C11.7019 8.77081 11.4128 8.82822 11.1432 8.93983C10.8735 9.05147 10.6289 9.21589 10.4225 9.42225C10.216 9.62862 10.0518 9.8733 9.94004 10.143C9.82835 10.4126 9.77109 10.7017 9.77109 10.9935V13.2846H6.46152V10.3373C6.46158 7.68701 8.61007 5.5385 11.2604 5.53846H17.5387Z" fill="var(--fill-0, white)"/>
</g>
<defs>
<clipPath id="clip0_0_4">
<rect width="24" height="24" fill="white"/>
</clipPath>
</defs>
</svg>
