<svg width="92" height="20" viewBox="0 0 92 20" fill="none" xmlns="http://www.w3.org/2000/svg">
  <g clip-path="url(#clip0_400_6624)">
    <path d="M79.7657 5.07236V8.29315H87.2697V8.3431L79.7657 16.1981V19.4189H91.9999V16.1981H84.52V16.1481L91.9999 8.29315V5.07236H79.7657Z" fill="#0F172A"></path>
    <path d="M77.6408 19.4173V4.76552H74.1236V19.4173H77.6408ZM74.4953 3.30774C74.8744 3.67959 75.3367 3.86458 75.8822 3.86458C76.4277 3.86458 76.89 3.67959 77.2691 3.30774C77.6482 2.9359 77.8386 2.47711 77.8386 1.93322C77.8386 1.38933 77.6445 0.950883 77.2561 0.56979C76.8678 0.190547 76.4092 0 75.8822 0C75.3552 0 74.8947 0.190547 74.5083 0.56979C74.1199 0.949033 73.9258 1.40413 73.9258 1.93322C73.9258 2.46231 74.1162 2.9359 74.4953 3.30774Z" fill="#0F172A"></path>
    <path d="M69.7885 9.31024C70.7649 8.40376 71.4972 7.01813 71.4972 5.69355C71.4972 2.69476 68.7622 0.373047 65.8294 0.373047H57.7578V11.1695V19.4037H66.6745C69.5962 19.4037 72.4384 17.1412 72.394 13.8482C72.4199 11.9372 71.2364 10.2722 69.7885 9.31024ZM61.2916 3.46249H65.6038C66.8335 3.46249 67.9597 4.45592 67.943 5.7731C67.9578 7.09028 66.8335 8.08371 65.6038 8.08371H61.2916V3.46434V3.46249ZM66.3713 11.1695C67.5973 11.1695 68.9065 12.2258 68.8843 13.7705C68.9046 15.3152 67.5954 16.3272 66.3713 16.3272H61.2916V11.1713H66.3713V11.1695Z" fill="#0F172A"></path>
    <path d="M11.1135 7.97656H14.6436V12.7032C14.6436 16.405 11.6442 19.4057 7.94404 19.4057H0V15.8741H7.91076C9.68042 15.8741 11.1135 14.4385 11.1135 12.6699V7.97841V7.97656Z" fill="#0F172A"></path>
    <path d="M3.53007 11.8021H0V7.07548C0 3.37369 2.99936 0.373047 6.69955 0.373047H14.6454V3.90464H6.73468C4.96503 3.90464 3.53192 5.34021 3.53192 7.10878V11.8003L3.53007 11.8021Z" fill="#0F172A"></path>
    <path d="M39.6616 4.9082C35.6858 4.9082 32.877 7.64801 32.877 11.3313V19.4045H36.4015V11.9159C36.4015 11.7512 36.4126 11.248 36.4348 11.0908C36.6511 9.50907 37.9307 8.33249 39.6616 8.33249C41.3924 8.33249 42.672 9.50907 42.8884 11.0908C42.9106 11.248 42.9217 11.7512 42.9217 11.9159V19.4045H46.4462V11.3313C46.4462 7.64986 43.6373 4.9082 39.6616 4.9082Z" fill="#0F172A"></path>
    <path d="M55.6976 7.97641V4.90362H51.9733V0.373047H48.4414V15.5631C48.4414 17.685 50.1611 19.4055 52.2821 19.4055H55.6976V16.3272H53.51C52.6612 16.3272 51.9733 15.639 51.9733 14.7898V7.97641H55.6976Z" fill="#0F172A"></path>
    <path d="M23.866 16.9217C22.0945 16.942 20.1455 15.8154 19.9329 13.6731H31.0723L31.0834 13.5751C31.3774 11.0036 30.7838 8.81883 29.0973 7.08171C27.7474 5.67758 25.8631 4.9043 23.7902 4.9043C19.6795 4.9043 16.4453 8.30639 16.4453 12.4892C16.4453 16.6719 19.7017 19.9982 23.842 19.9982C25.3324 19.9982 26.7396 19.5671 27.9083 18.755C29.0955 17.954 29.9535 16.7829 30.5859 15.3677H26.9671C26.2866 16.3852 25.2233 16.9198 23.8679 16.9198L23.866 16.9217ZM23.818 7.95859C23.8346 7.95859 23.8512 7.95859 23.8679 7.95859C26.1941 7.95859 27.483 9.66611 27.6698 10.9019H19.9883C20.1714 9.64021 21.4381 7.95859 23.818 7.95859Z" fill="#0F172A"></path>
  </g>
  <defs>
    <clipPath id="clip0_400_6624"><rect width="92" height="20" fill="white"></rect></clipPath>
  </defs>
</svg>